<mxfile host="app.diagrams.net" agent="Mozilla/5.0 (X11; Linux x86_64) AppleWebKit/537.36 (KHTML, like Gecko) Chrome/135.0.0.0 Safari/537.36" version="26.2.12">
  <diagram name="페이지-1" id="NRwnvScYyqMPLCs6Ut5R">
    <mxGraphModel dx="2098" dy="1359" grid="1" gridSize="10" guides="1" tooltips="1" connect="1" arrows="1" fold="1" page="1" pageScale="1" pageWidth="827" pageHeight="1169" math="0" shadow="0">
      <root>
        <mxCell id="0" />
        <mxCell id="1" parent="0" />
        <mxCell id="TjqWgJ0wDWPpkisWlTRm-3" value="" style="edgeStyle=orthogonalEdgeStyle;rounded=0;orthogonalLoop=1;jettySize=auto;html=1;" edge="1" parent="1" source="TjqWgJ0wDWPpkisWlTRm-1" target="TjqWgJ0wDWPpkisWlTRm-2">
          <mxGeometry relative="1" as="geometry" />
        </mxCell>
        <mxCell id="TjqWgJ0wDWPpkisWlTRm-1" value="" style="strokeWidth=2;html=1;shape=mxgraph.flowchart.start_2;whiteSpace=wrap;" vertex="1" parent="1">
          <mxGeometry x="230" y="100" width="60" height="60" as="geometry" />
        </mxCell>
        <mxCell id="TjqWgJ0wDWPpkisWlTRm-209" style="edgeStyle=orthogonalEdgeStyle;rounded=0;orthogonalLoop=1;jettySize=auto;html=1;exitX=0.5;exitY=1;exitDx=0;exitDy=0;entryX=0.5;entryY=0;entryDx=0;entryDy=0;" edge="1" parent="1" source="TjqWgJ0wDWPpkisWlTRm-2" target="TjqWgJ0wDWPpkisWlTRm-187">
          <mxGeometry relative="1" as="geometry" />
        </mxCell>
        <mxCell id="TjqWgJ0wDWPpkisWlTRm-2" value="&lt;div&gt;const int LED[10] =&amp;nbsp;&lt;div&gt;{7, 6, 5, 4, 3, 2, A0, 10, 9, 8}&lt;/div&gt;&lt;/div&gt;&lt;div&gt;&lt;span style=&quot;background-color: transparent; color: light-dark(rgb(0, 0, 0), rgb(255, 255, 255));&quot;&gt;&lt;br&gt;&lt;/span&gt;&lt;/div&gt;&lt;div&gt;&lt;br&gt;&lt;/div&gt;&lt;div&gt;const int BTN[3] =&lt;/div&gt;&lt;div&gt;{13, 12, 11};&lt;/div&gt;&lt;div&gt;&lt;br&gt;&lt;/div&gt;&lt;div&gt;bool first = false;&lt;/div&gt;&lt;div&gt;bool second = false;&lt;/div&gt;&lt;div&gt;bool third = false;&lt;/div&gt;&lt;div&gt;&lt;br&gt;&lt;/div&gt;&lt;div&gt;int prev = 0;&lt;/div&gt;&lt;div&gt;int loc = 0;&lt;/div&gt;&lt;div&gt;&lt;br&gt;&lt;/div&gt;&lt;div&gt;bool moved = false;&lt;/div&gt;&lt;div&gt;bool dir = true;&lt;/div&gt;" style="whiteSpace=wrap;html=1;strokeWidth=2;" vertex="1" parent="1">
          <mxGeometry x="155" y="210" width="210" height="250" as="geometry" />
        </mxCell>
        <mxCell id="TjqWgJ0wDWPpkisWlTRm-17" value="" style="edgeStyle=orthogonalEdgeStyle;rounded=0;orthogonalLoop=1;jettySize=auto;html=1;" edge="1" parent="1" source="TjqWgJ0wDWPpkisWlTRm-14" target="TjqWgJ0wDWPpkisWlTRm-16">
          <mxGeometry relative="1" as="geometry" />
        </mxCell>
        <mxCell id="TjqWgJ0wDWPpkisWlTRm-14" value="int j = 0" style="whiteSpace=wrap;html=1;strokeWidth=2;" vertex="1" parent="1">
          <mxGeometry x="200" y="860" width="120" height="60" as="geometry" />
        </mxCell>
        <mxCell id="TjqWgJ0wDWPpkisWlTRm-19" value="" style="edgeStyle=orthogonalEdgeStyle;rounded=0;orthogonalLoop=1;jettySize=auto;html=1;" edge="1" parent="1" source="TjqWgJ0wDWPpkisWlTRm-16" target="TjqWgJ0wDWPpkisWlTRm-18">
          <mxGeometry relative="1" as="geometry" />
        </mxCell>
        <mxCell id="TjqWgJ0wDWPpkisWlTRm-29" value="T" style="edgeLabel;html=1;align=center;verticalAlign=middle;resizable=0;points=[];" vertex="1" connectable="0" parent="TjqWgJ0wDWPpkisWlTRm-19">
          <mxGeometry x="-0.1" y="-5" relative="1" as="geometry">
            <mxPoint as="offset" />
          </mxGeometry>
        </mxCell>
        <mxCell id="TjqWgJ0wDWPpkisWlTRm-23" value="" style="edgeStyle=orthogonalEdgeStyle;rounded=0;orthogonalLoop=1;jettySize=auto;html=1;" edge="1" parent="1" source="TjqWgJ0wDWPpkisWlTRm-16" target="TjqWgJ0wDWPpkisWlTRm-22">
          <mxGeometry relative="1" as="geometry" />
        </mxCell>
        <mxCell id="TjqWgJ0wDWPpkisWlTRm-31" value="F" style="edgeLabel;html=1;align=center;verticalAlign=middle;resizable=0;points=[];" vertex="1" connectable="0" parent="TjqWgJ0wDWPpkisWlTRm-23">
          <mxGeometry x="-0.1059" y="-3" relative="1" as="geometry">
            <mxPoint as="offset" />
          </mxGeometry>
        </mxCell>
        <mxCell id="TjqWgJ0wDWPpkisWlTRm-16" value="j &amp;lt; 3" style="rhombus;whiteSpace=wrap;html=1;strokeWidth=2;" vertex="1" parent="1">
          <mxGeometry x="220" y="990" width="80" height="80" as="geometry" />
        </mxCell>
        <mxCell id="TjqWgJ0wDWPpkisWlTRm-21" value="" style="edgeStyle=orthogonalEdgeStyle;rounded=0;orthogonalLoop=1;jettySize=auto;html=1;" edge="1" parent="1" source="TjqWgJ0wDWPpkisWlTRm-18" target="TjqWgJ0wDWPpkisWlTRm-20">
          <mxGeometry relative="1" as="geometry" />
        </mxCell>
        <mxCell id="TjqWgJ0wDWPpkisWlTRm-18" value="j++" style="whiteSpace=wrap;html=1;strokeWidth=2;" vertex="1" parent="1">
          <mxGeometry x="360" y="1000" width="60" height="60" as="geometry" />
        </mxCell>
        <mxCell id="TjqWgJ0wDWPpkisWlTRm-25" style="edgeStyle=orthogonalEdgeStyle;rounded=0;orthogonalLoop=1;jettySize=auto;html=1;exitX=1;exitY=0.5;exitDx=0;exitDy=0;" edge="1" parent="1" source="TjqWgJ0wDWPpkisWlTRm-20">
          <mxGeometry relative="1" as="geometry">
            <mxPoint x="260" y="990" as="targetPoint" />
            <Array as="points">
              <mxPoint x="470" y="1140" />
              <mxPoint x="470" y="960" />
              <mxPoint x="260" y="960" />
            </Array>
          </mxGeometry>
        </mxCell>
        <mxCell id="TjqWgJ0wDWPpkisWlTRm-20" value="pinMode(BTN{j}, INPUT)" style="whiteSpace=wrap;html=1;strokeWidth=2;" vertex="1" parent="1">
          <mxGeometry x="330" y="1110" width="120" height="60" as="geometry" />
        </mxCell>
        <mxCell id="TjqWgJ0wDWPpkisWlTRm-36" value="" style="edgeStyle=orthogonalEdgeStyle;rounded=0;orthogonalLoop=1;jettySize=auto;html=1;" edge="1" parent="1" source="TjqWgJ0wDWPpkisWlTRm-22" target="TjqWgJ0wDWPpkisWlTRm-35">
          <mxGeometry relative="1" as="geometry" />
        </mxCell>
        <mxCell id="TjqWgJ0wDWPpkisWlTRm-22" value="digitalWrite(FLOOR[loc], HIGH);" style="whiteSpace=wrap;html=1;strokeWidth=2;" vertex="1" parent="1">
          <mxGeometry x="150" y="1210" width="220" height="60" as="geometry" />
        </mxCell>
        <mxCell id="TjqWgJ0wDWPpkisWlTRm-118" value="" style="edgeStyle=orthogonalEdgeStyle;rounded=0;orthogonalLoop=1;jettySize=auto;html=1;" edge="1" parent="1" source="TjqWgJ0wDWPpkisWlTRm-34" target="TjqWgJ0wDWPpkisWlTRm-117">
          <mxGeometry relative="1" as="geometry" />
        </mxCell>
        <mxCell id="TjqWgJ0wDWPpkisWlTRm-34" value="int press;&lt;div&gt;int btnState;&lt;/div&gt;&lt;div&gt;static int prevBtnState = LOW;&lt;/div&gt;&lt;div&gt;btnState = digitalRead(BTN[0]);&lt;/div&gt;&lt;div&gt;&lt;br&gt;&lt;/div&gt;" style="rounded=1;whiteSpace=wrap;html=1;absoluteArcSize=1;arcSize=14;strokeWidth=2;" vertex="1" parent="1">
          <mxGeometry x="-710" y="1194" width="240" height="90" as="geometry" />
        </mxCell>
        <mxCell id="TjqWgJ0wDWPpkisWlTRm-54" value="" style="edgeStyle=orthogonalEdgeStyle;rounded=0;orthogonalLoop=1;jettySize=auto;html=1;" edge="1" parent="1" source="TjqWgJ0wDWPpkisWlTRm-35" target="TjqWgJ0wDWPpkisWlTRm-53">
          <mxGeometry relative="1" as="geometry" />
        </mxCell>
        <mxCell id="TjqWgJ0wDWPpkisWlTRm-313" value="T" style="edgeLabel;html=1;align=center;verticalAlign=middle;resizable=0;points=[];" vertex="1" connectable="0" parent="TjqWgJ0wDWPpkisWlTRm-54">
          <mxGeometry x="-0.068" y="-3" relative="1" as="geometry">
            <mxPoint as="offset" />
          </mxGeometry>
        </mxCell>
        <mxCell id="TjqWgJ0wDWPpkisWlTRm-60" value="" style="edgeStyle=orthogonalEdgeStyle;rounded=0;orthogonalLoop=1;jettySize=auto;html=1;" edge="1" parent="1" source="TjqWgJ0wDWPpkisWlTRm-35" target="TjqWgJ0wDWPpkisWlTRm-59">
          <mxGeometry relative="1" as="geometry" />
        </mxCell>
        <mxCell id="TjqWgJ0wDWPpkisWlTRm-317" value="F" style="edgeLabel;html=1;align=center;verticalAlign=middle;resizable=0;points=[];" vertex="1" connectable="0" parent="TjqWgJ0wDWPpkisWlTRm-60">
          <mxGeometry x="-0.4377" y="3" relative="1" as="geometry">
            <mxPoint as="offset" />
          </mxGeometry>
        </mxCell>
        <mxCell id="TjqWgJ0wDWPpkisWlTRm-35" value="btnPress_1()" style="rhombus;whiteSpace=wrap;html=1;strokeWidth=2;" vertex="1" parent="1">
          <mxGeometry x="210" y="1330" width="100" height="80" as="geometry" />
        </mxCell>
        <mxCell id="TjqWgJ0wDWPpkisWlTRm-56" value="" style="edgeStyle=orthogonalEdgeStyle;rounded=0;orthogonalLoop=1;jettySize=auto;html=1;" edge="1" parent="1" source="TjqWgJ0wDWPpkisWlTRm-53" target="TjqWgJ0wDWPpkisWlTRm-55">
          <mxGeometry relative="1" as="geometry" />
        </mxCell>
        <mxCell id="TjqWgJ0wDWPpkisWlTRm-314" value="T" style="edgeLabel;html=1;align=center;verticalAlign=middle;resizable=0;points=[];" vertex="1" connectable="0" parent="TjqWgJ0wDWPpkisWlTRm-56">
          <mxGeometry x="-0.2098" y="1" relative="1" as="geometry">
            <mxPoint as="offset" />
          </mxGeometry>
        </mxCell>
        <mxCell id="TjqWgJ0wDWPpkisWlTRm-58" value="" style="edgeStyle=orthogonalEdgeStyle;rounded=0;orthogonalLoop=1;jettySize=auto;html=1;" edge="1" parent="1" source="TjqWgJ0wDWPpkisWlTRm-53" target="TjqWgJ0wDWPpkisWlTRm-57">
          <mxGeometry relative="1" as="geometry" />
        </mxCell>
        <mxCell id="TjqWgJ0wDWPpkisWlTRm-315" value="F" style="edgeLabel;html=1;align=center;verticalAlign=middle;resizable=0;points=[];" vertex="1" connectable="0" parent="TjqWgJ0wDWPpkisWlTRm-58">
          <mxGeometry x="-0.1627" y="-2" relative="1" as="geometry">
            <mxPoint as="offset" />
          </mxGeometry>
        </mxCell>
        <mxCell id="TjqWgJ0wDWPpkisWlTRm-53" value="first == false" style="rhombus;whiteSpace=wrap;html=1;strokeWidth=2;" vertex="1" parent="1">
          <mxGeometry x="400" y="1330" width="80" height="80" as="geometry" />
        </mxCell>
        <mxCell id="TjqWgJ0wDWPpkisWlTRm-78" style="edgeStyle=orthogonalEdgeStyle;rounded=0;orthogonalLoop=1;jettySize=auto;html=1;exitX=0.5;exitY=1;exitDx=0;exitDy=0;entryX=0.5;entryY=0;entryDx=0;entryDy=0;" edge="1" parent="1" source="TjqWgJ0wDWPpkisWlTRm-55" target="TjqWgJ0wDWPpkisWlTRm-59">
          <mxGeometry relative="1" as="geometry">
            <Array as="points">
              <mxPoint x="600" y="1590" />
              <mxPoint x="260" y="1590" />
            </Array>
          </mxGeometry>
        </mxCell>
        <mxCell id="TjqWgJ0wDWPpkisWlTRm-55" value="first = true&lt;div&gt;digirtalWrite(LED[7], HIGH)&lt;/div&gt;" style="whiteSpace=wrap;html=1;strokeWidth=2;" vertex="1" parent="1">
          <mxGeometry x="540" y="1340" width="120" height="60" as="geometry" />
        </mxCell>
        <mxCell id="TjqWgJ0wDWPpkisWlTRm-77" style="edgeStyle=orthogonalEdgeStyle;rounded=0;orthogonalLoop=1;jettySize=auto;html=1;exitX=0.5;exitY=1;exitDx=0;exitDy=0;entryX=0.5;entryY=0;entryDx=0;entryDy=0;" edge="1" parent="1" source="TjqWgJ0wDWPpkisWlTRm-57" target="TjqWgJ0wDWPpkisWlTRm-59">
          <mxGeometry relative="1" as="geometry" />
        </mxCell>
        <mxCell id="TjqWgJ0wDWPpkisWlTRm-57" value="first = false&lt;div&gt;digirtalWrite(LED[7], LOW)&lt;/div&gt;" style="whiteSpace=wrap;html=1;strokeWidth=2;" vertex="1" parent="1">
          <mxGeometry x="380" y="1470" width="120" height="60" as="geometry" />
        </mxCell>
        <mxCell id="TjqWgJ0wDWPpkisWlTRm-62" value="" style="edgeStyle=orthogonalEdgeStyle;rounded=0;orthogonalLoop=1;jettySize=auto;html=1;" edge="1" parent="1" source="TjqWgJ0wDWPpkisWlTRm-59" target="TjqWgJ0wDWPpkisWlTRm-61">
          <mxGeometry relative="1" as="geometry" />
        </mxCell>
        <mxCell id="TjqWgJ0wDWPpkisWlTRm-319" value="T" style="edgeLabel;html=1;align=center;verticalAlign=middle;resizable=0;points=[];" vertex="1" connectable="0" parent="TjqWgJ0wDWPpkisWlTRm-62">
          <mxGeometry x="-0.1714" y="1" relative="1" as="geometry">
            <mxPoint as="offset" />
          </mxGeometry>
        </mxCell>
        <mxCell id="TjqWgJ0wDWPpkisWlTRm-68" value="" style="edgeStyle=orthogonalEdgeStyle;rounded=0;orthogonalLoop=1;jettySize=auto;html=1;" edge="1" parent="1" source="TjqWgJ0wDWPpkisWlTRm-59" target="TjqWgJ0wDWPpkisWlTRm-67">
          <mxGeometry relative="1" as="geometry" />
        </mxCell>
        <mxCell id="TjqWgJ0wDWPpkisWlTRm-318" value="F" style="edgeLabel;html=1;align=center;verticalAlign=middle;resizable=0;points=[];" vertex="1" connectable="0" parent="TjqWgJ0wDWPpkisWlTRm-68">
          <mxGeometry x="-0.2905" y="-1" relative="1" as="geometry">
            <mxPoint as="offset" />
          </mxGeometry>
        </mxCell>
        <mxCell id="TjqWgJ0wDWPpkisWlTRm-59" value="btnPress_2()" style="rhombus;whiteSpace=wrap;html=1;strokeWidth=2;" vertex="1" parent="1">
          <mxGeometry x="210" y="1650" width="100" height="80" as="geometry" />
        </mxCell>
        <mxCell id="TjqWgJ0wDWPpkisWlTRm-64" value="" style="edgeStyle=orthogonalEdgeStyle;rounded=0;orthogonalLoop=1;jettySize=auto;html=1;" edge="1" parent="1" source="TjqWgJ0wDWPpkisWlTRm-61">
          <mxGeometry relative="1" as="geometry">
            <mxPoint x="580" y="1690" as="targetPoint" />
          </mxGeometry>
        </mxCell>
        <mxCell id="TjqWgJ0wDWPpkisWlTRm-320" value="T" style="edgeLabel;html=1;align=center;verticalAlign=middle;resizable=0;points=[];" vertex="1" connectable="0" parent="TjqWgJ0wDWPpkisWlTRm-64">
          <mxGeometry x="-0.3217" y="3" relative="1" as="geometry">
            <mxPoint as="offset" />
          </mxGeometry>
        </mxCell>
        <mxCell id="TjqWgJ0wDWPpkisWlTRm-66" value="" style="edgeStyle=orthogonalEdgeStyle;rounded=0;orthogonalLoop=1;jettySize=auto;html=1;" edge="1" parent="1" source="TjqWgJ0wDWPpkisWlTRm-61" target="TjqWgJ0wDWPpkisWlTRm-65">
          <mxGeometry relative="1" as="geometry" />
        </mxCell>
        <mxCell id="TjqWgJ0wDWPpkisWlTRm-321" value="F" style="edgeLabel;html=1;align=center;verticalAlign=middle;resizable=0;points=[];" vertex="1" connectable="0" parent="TjqWgJ0wDWPpkisWlTRm-66">
          <mxGeometry x="-0.3111" y="-1" relative="1" as="geometry">
            <mxPoint as="offset" />
          </mxGeometry>
        </mxCell>
        <mxCell id="TjqWgJ0wDWPpkisWlTRm-61" value="second == false" style="rhombus;whiteSpace=wrap;html=1;strokeWidth=2;" vertex="1" parent="1">
          <mxGeometry x="380" y="1650" width="120" height="80" as="geometry" />
        </mxCell>
        <mxCell id="TjqWgJ0wDWPpkisWlTRm-80" style="edgeStyle=orthogonalEdgeStyle;rounded=0;orthogonalLoop=1;jettySize=auto;html=1;exitX=0.5;exitY=1;exitDx=0;exitDy=0;" edge="1" parent="1">
          <mxGeometry relative="1" as="geometry">
            <mxPoint x="260" y="1950" as="targetPoint" />
            <mxPoint x="640" y="1720" as="sourcePoint" />
            <Array as="points">
              <mxPoint x="640" y="1920" />
              <mxPoint x="260" y="1920" />
            </Array>
          </mxGeometry>
        </mxCell>
        <mxCell id="TjqWgJ0wDWPpkisWlTRm-63" value="second = true&lt;div&gt;digitalWrite(LED[8], HIGH)&lt;/div&gt;" style="whiteSpace=wrap;html=1;strokeWidth=2;" vertex="1" parent="1">
          <mxGeometry x="580" y="1660" width="120" height="60" as="geometry" />
        </mxCell>
        <mxCell id="TjqWgJ0wDWPpkisWlTRm-79" style="edgeStyle=orthogonalEdgeStyle;rounded=0;orthogonalLoop=1;jettySize=auto;html=1;exitX=0.5;exitY=1;exitDx=0;exitDy=0;" edge="1" parent="1" source="TjqWgJ0wDWPpkisWlTRm-65" target="TjqWgJ0wDWPpkisWlTRm-67">
          <mxGeometry relative="1" as="geometry" />
        </mxCell>
        <mxCell id="TjqWgJ0wDWPpkisWlTRm-65" value="second = false&lt;div&gt;digirtalWrite(LED[8], LOW)&lt;/div&gt;" style="whiteSpace=wrap;html=1;strokeWidth=2;" vertex="1" parent="1">
          <mxGeometry x="380" y="1820" width="120" height="60" as="geometry" />
        </mxCell>
        <mxCell id="TjqWgJ0wDWPpkisWlTRm-70" value="" style="edgeStyle=orthogonalEdgeStyle;rounded=0;orthogonalLoop=1;jettySize=auto;html=1;" edge="1" parent="1" source="TjqWgJ0wDWPpkisWlTRm-67" target="TjqWgJ0wDWPpkisWlTRm-69">
          <mxGeometry relative="1" as="geometry" />
        </mxCell>
        <mxCell id="TjqWgJ0wDWPpkisWlTRm-323" value="T" style="edgeLabel;html=1;align=center;verticalAlign=middle;resizable=0;points=[];" vertex="1" connectable="0" parent="TjqWgJ0wDWPpkisWlTRm-70">
          <mxGeometry x="-0.2387" y="1" relative="1" as="geometry">
            <mxPoint as="offset" />
          </mxGeometry>
        </mxCell>
        <mxCell id="TjqWgJ0wDWPpkisWlTRm-271" value="" style="edgeStyle=orthogonalEdgeStyle;rounded=0;orthogonalLoop=1;jettySize=auto;html=1;" edge="1" parent="1" source="TjqWgJ0wDWPpkisWlTRm-67" target="TjqWgJ0wDWPpkisWlTRm-270">
          <mxGeometry relative="1" as="geometry" />
        </mxCell>
        <mxCell id="TjqWgJ0wDWPpkisWlTRm-322" value="F" style="edgeLabel;html=1;align=center;verticalAlign=middle;resizable=0;points=[];" vertex="1" connectable="0" parent="TjqWgJ0wDWPpkisWlTRm-271">
          <mxGeometry x="-0.2854" y="-2" relative="1" as="geometry">
            <mxPoint as="offset" />
          </mxGeometry>
        </mxCell>
        <mxCell id="TjqWgJ0wDWPpkisWlTRm-67" value="btnPress_3()" style="rhombus;whiteSpace=wrap;html=1;strokeWidth=2;" vertex="1" parent="1">
          <mxGeometry x="210" y="1960" width="100" height="80" as="geometry" />
        </mxCell>
        <mxCell id="TjqWgJ0wDWPpkisWlTRm-72" value="" style="edgeStyle=orthogonalEdgeStyle;rounded=0;orthogonalLoop=1;jettySize=auto;html=1;" edge="1" parent="1" source="TjqWgJ0wDWPpkisWlTRm-69">
          <mxGeometry relative="1" as="geometry">
            <mxPoint x="595" y="2000" as="targetPoint" />
          </mxGeometry>
        </mxCell>
        <mxCell id="TjqWgJ0wDWPpkisWlTRm-324" value="T" style="edgeLabel;html=1;align=center;verticalAlign=middle;resizable=0;points=[];" vertex="1" connectable="0" parent="TjqWgJ0wDWPpkisWlTRm-72">
          <mxGeometry x="0.0073" y="-4" relative="1" as="geometry">
            <mxPoint x="-2" as="offset" />
          </mxGeometry>
        </mxCell>
        <mxCell id="TjqWgJ0wDWPpkisWlTRm-74" value="" style="edgeStyle=orthogonalEdgeStyle;rounded=0;orthogonalLoop=1;jettySize=auto;html=1;" edge="1" parent="1" source="TjqWgJ0wDWPpkisWlTRm-69" target="TjqWgJ0wDWPpkisWlTRm-73">
          <mxGeometry relative="1" as="geometry" />
        </mxCell>
        <mxCell id="TjqWgJ0wDWPpkisWlTRm-69" value="third == false" style="rhombus;whiteSpace=wrap;html=1;strokeWidth=2;" vertex="1" parent="1">
          <mxGeometry x="380" y="1960" width="130" height="80" as="geometry" />
        </mxCell>
        <mxCell id="TjqWgJ0wDWPpkisWlTRm-71" value="third = true&lt;div&gt;digitalWrite(LED[9], HIGH)&lt;/div&gt;" style="whiteSpace=wrap;html=1;strokeWidth=2;" vertex="1" parent="1">
          <mxGeometry x="595" y="1970" width="120" height="60" as="geometry" />
        </mxCell>
        <mxCell id="TjqWgJ0wDWPpkisWlTRm-73" value="third = false&lt;div&gt;digirtalWrite(LED[9], LOW)&lt;/div&gt;" style="whiteSpace=wrap;html=1;strokeWidth=2;" vertex="1" parent="1">
          <mxGeometry x="385" y="2130" width="120" height="60" as="geometry" />
        </mxCell>
        <mxCell id="TjqWgJ0wDWPpkisWlTRm-120" value="" style="edgeStyle=orthogonalEdgeStyle;rounded=0;orthogonalLoop=1;jettySize=auto;html=1;" edge="1" parent="1" source="TjqWgJ0wDWPpkisWlTRm-117" target="TjqWgJ0wDWPpkisWlTRm-119">
          <mxGeometry relative="1" as="geometry" />
        </mxCell>
        <mxCell id="TjqWgJ0wDWPpkisWlTRm-375" value="T" style="edgeLabel;html=1;align=center;verticalAlign=middle;resizable=0;points=[];" vertex="1" connectable="0" parent="TjqWgJ0wDWPpkisWlTRm-120">
          <mxGeometry x="-0.0867" y="1" relative="1" as="geometry">
            <mxPoint as="offset" />
          </mxGeometry>
        </mxCell>
        <mxCell id="TjqWgJ0wDWPpkisWlTRm-122" value="" style="edgeStyle=orthogonalEdgeStyle;rounded=0;orthogonalLoop=1;jettySize=auto;html=1;" edge="1" parent="1" source="TjqWgJ0wDWPpkisWlTRm-117" target="TjqWgJ0wDWPpkisWlTRm-121">
          <mxGeometry relative="1" as="geometry" />
        </mxCell>
        <mxCell id="TjqWgJ0wDWPpkisWlTRm-376" value="F" style="edgeLabel;html=1;align=center;verticalAlign=middle;resizable=0;points=[];" vertex="1" connectable="0" parent="TjqWgJ0wDWPpkisWlTRm-122">
          <mxGeometry x="0.0583" y="-1" relative="1" as="geometry">
            <mxPoint as="offset" />
          </mxGeometry>
        </mxCell>
        <mxCell id="TjqWgJ0wDWPpkisWlTRm-117" value="btn == LOW &amp;amp;&amp;amp; prevBtnState == HIGH" style="rhombus;whiteSpace=wrap;html=1;rounded=1;absoluteArcSize=1;arcSize=14;strokeWidth=2;" vertex="1" parent="1">
          <mxGeometry x="-720" y="1324" width="260" height="80" as="geometry" />
        </mxCell>
        <mxCell id="TjqWgJ0wDWPpkisWlTRm-125" style="edgeStyle=orthogonalEdgeStyle;rounded=0;orthogonalLoop=1;jettySize=auto;html=1;exitX=0.5;exitY=1;exitDx=0;exitDy=0;" edge="1" parent="1" source="TjqWgJ0wDWPpkisWlTRm-119">
          <mxGeometry relative="1" as="geometry">
            <mxPoint x="-590" y="1544" as="targetPoint" />
            <Array as="points">
              <mxPoint x="-350" y="1524" />
              <mxPoint x="-589" y="1524" />
            </Array>
          </mxGeometry>
        </mxCell>
        <mxCell id="TjqWgJ0wDWPpkisWlTRm-119" value="press = 0" style="whiteSpace=wrap;html=1;rounded=1;absoluteArcSize=1;arcSize=14;strokeWidth=2;" vertex="1" parent="1">
          <mxGeometry x="-410" y="1334" width="120" height="60" as="geometry" />
        </mxCell>
        <mxCell id="TjqWgJ0wDWPpkisWlTRm-124" value="" style="edgeStyle=orthogonalEdgeStyle;rounded=0;orthogonalLoop=1;jettySize=auto;html=1;" edge="1" parent="1" source="TjqWgJ0wDWPpkisWlTRm-121" target="TjqWgJ0wDWPpkisWlTRm-123">
          <mxGeometry relative="1" as="geometry" />
        </mxCell>
        <mxCell id="TjqWgJ0wDWPpkisWlTRm-121" value="press = 1" style="whiteSpace=wrap;html=1;rounded=1;absoluteArcSize=1;arcSize=14;strokeWidth=2;" vertex="1" parent="1">
          <mxGeometry x="-650" y="1444" width="120" height="60" as="geometry" />
        </mxCell>
        <mxCell id="TjqWgJ0wDWPpkisWlTRm-127" value="" style="edgeStyle=orthogonalEdgeStyle;rounded=0;orthogonalLoop=1;jettySize=auto;html=1;" edge="1" parent="1" source="TjqWgJ0wDWPpkisWlTRm-123" target="TjqWgJ0wDWPpkisWlTRm-126">
          <mxGeometry relative="1" as="geometry" />
        </mxCell>
        <mxCell id="TjqWgJ0wDWPpkisWlTRm-123" value="prevBtnState = btnState" style="whiteSpace=wrap;html=1;rounded=1;absoluteArcSize=1;arcSize=14;strokeWidth=2;" vertex="1" parent="1">
          <mxGeometry x="-650" y="1554" width="120" height="60" as="geometry" />
        </mxCell>
        <mxCell id="TjqWgJ0wDWPpkisWlTRm-126" value="return press;" style="whiteSpace=wrap;html=1;rounded=1;absoluteArcSize=1;arcSize=14;strokeWidth=2;" vertex="1" parent="1">
          <mxGeometry x="-650" y="1694" width="120" height="60" as="geometry" />
        </mxCell>
        <mxCell id="TjqWgJ0wDWPpkisWlTRm-183" value="" style="edgeStyle=orthogonalEdgeStyle;rounded=0;orthogonalLoop=1;jettySize=auto;html=1;" edge="1" parent="1" source="TjqWgJ0wDWPpkisWlTRm-169" target="TjqWgJ0wDWPpkisWlTRm-182">
          <mxGeometry relative="1" as="geometry" />
        </mxCell>
        <mxCell id="TjqWgJ0wDWPpkisWlTRm-332" value="T" style="edgeLabel;html=1;align=center;verticalAlign=middle;resizable=0;points=[];" vertex="1" connectable="0" parent="TjqWgJ0wDWPpkisWlTRm-183">
          <mxGeometry x="-0.1189" y="2" relative="1" as="geometry">
            <mxPoint as="offset" />
          </mxGeometry>
        </mxCell>
        <mxCell id="TjqWgJ0wDWPpkisWlTRm-285" style="edgeStyle=orthogonalEdgeStyle;rounded=0;orthogonalLoop=1;jettySize=auto;html=1;entryX=0.5;entryY=0;entryDx=0;entryDy=0;" edge="1" parent="1" source="TjqWgJ0wDWPpkisWlTRm-169" target="TjqWgJ0wDWPpkisWlTRm-171">
          <mxGeometry relative="1" as="geometry" />
        </mxCell>
        <mxCell id="TjqWgJ0wDWPpkisWlTRm-333" value="F" style="edgeLabel;html=1;align=center;verticalAlign=middle;resizable=0;points=[];" vertex="1" connectable="0" parent="TjqWgJ0wDWPpkisWlTRm-285">
          <mxGeometry x="-0.1471" y="2" relative="1" as="geometry">
            <mxPoint y="1" as="offset" />
          </mxGeometry>
        </mxCell>
        <mxCell id="TjqWgJ0wDWPpkisWlTRm-169" value="loc == 2 || loc == 5" style="rhombus;whiteSpace=wrap;html=1;strokeWidth=2;" vertex="1" parent="1">
          <mxGeometry x="730" y="3041" width="150" height="80" as="geometry" />
        </mxCell>
        <mxCell id="TjqWgJ0wDWPpkisWlTRm-185" value="" style="edgeStyle=orthogonalEdgeStyle;rounded=0;orthogonalLoop=1;jettySize=auto;html=1;" edge="1" parent="1" source="TjqWgJ0wDWPpkisWlTRm-171" target="TjqWgJ0wDWPpkisWlTRm-184">
          <mxGeometry relative="1" as="geometry" />
        </mxCell>
        <mxCell id="TjqWgJ0wDWPpkisWlTRm-335" value="T" style="edgeLabel;html=1;align=center;verticalAlign=middle;resizable=0;points=[];" vertex="1" connectable="0" parent="TjqWgJ0wDWPpkisWlTRm-185">
          <mxGeometry x="-0.0092" y="4" relative="1" as="geometry">
            <mxPoint as="offset" />
          </mxGeometry>
        </mxCell>
        <mxCell id="TjqWgJ0wDWPpkisWlTRm-287" style="edgeStyle=orthogonalEdgeStyle;rounded=0;orthogonalLoop=1;jettySize=auto;html=1;exitX=0.5;exitY=1;exitDx=0;exitDy=0;" edge="1" parent="1" source="TjqWgJ0wDWPpkisWlTRm-171" target="TjqWgJ0wDWPpkisWlTRm-286">
          <mxGeometry relative="1" as="geometry" />
        </mxCell>
        <mxCell id="TjqWgJ0wDWPpkisWlTRm-334" value="F" style="edgeLabel;html=1;align=center;verticalAlign=middle;resizable=0;points=[];" vertex="1" connectable="0" parent="TjqWgJ0wDWPpkisWlTRm-287">
          <mxGeometry x="-0.3382" relative="1" as="geometry">
            <mxPoint y="-1" as="offset" />
          </mxGeometry>
        </mxCell>
        <mxCell id="TjqWgJ0wDWPpkisWlTRm-171" value="loc == 3 || loc == 6" style="rhombus;whiteSpace=wrap;html=1;strokeWidth=2;" vertex="1" parent="1">
          <mxGeometry x="725" y="3241" width="160" height="80" as="geometry" />
        </mxCell>
        <mxCell id="TjqWgJ0wDWPpkisWlTRm-288" style="edgeStyle=orthogonalEdgeStyle;rounded=0;orthogonalLoop=1;jettySize=auto;html=1;exitX=1;exitY=0.5;exitDx=0;exitDy=0;" edge="1" parent="1" source="TjqWgJ0wDWPpkisWlTRm-182" target="TjqWgJ0wDWPpkisWlTRm-286">
          <mxGeometry relative="1" as="geometry">
            <Array as="points">
              <mxPoint x="1090" y="3081" />
              <mxPoint x="1090" y="3371" />
              <mxPoint x="805" y="3371" />
            </Array>
          </mxGeometry>
        </mxCell>
        <mxCell id="TjqWgJ0wDWPpkisWlTRm-182" value="&lt;div&gt;&lt;span style=&quot;background-color: transparent; color: light-dark(rgb(0, 0, 0), rgb(255, 255, 255));&quot;&gt;loc--&lt;/span&gt;&lt;/div&gt;" style="whiteSpace=wrap;html=1;strokeWidth=2;" vertex="1" parent="1">
          <mxGeometry x="930" y="3051" width="110" height="60" as="geometry" />
        </mxCell>
        <mxCell id="TjqWgJ0wDWPpkisWlTRm-289" style="edgeStyle=orthogonalEdgeStyle;rounded=0;orthogonalLoop=1;jettySize=auto;html=1;exitX=0.5;exitY=1;exitDx=0;exitDy=0;" edge="1" parent="1" source="TjqWgJ0wDWPpkisWlTRm-184">
          <mxGeometry relative="1" as="geometry">
            <mxPoint x="800" y="3401" as="targetPoint" />
            <Array as="points">
              <mxPoint x="1090" y="3311" />
              <mxPoint x="1090" y="3371" />
              <mxPoint x="800" y="3371" />
            </Array>
          </mxGeometry>
        </mxCell>
        <mxCell id="TjqWgJ0wDWPpkisWlTRm-184" value="&lt;div&gt;&lt;span style=&quot;background-color: transparent; color: light-dark(rgb(0, 0, 0), rgb(255, 255, 255));&quot;&gt;loc++&lt;/span&gt;&lt;/div&gt;" style="whiteSpace=wrap;html=1;strokeWidth=2;" vertex="1" parent="1">
          <mxGeometry x="930" y="3251" width="120" height="60" as="geometry" />
        </mxCell>
        <mxCell id="TjqWgJ0wDWPpkisWlTRm-186" value="" style="edgeStyle=orthogonalEdgeStyle;rounded=0;orthogonalLoop=1;jettySize=auto;html=1;" edge="1" parent="1" source="TjqWgJ0wDWPpkisWlTRm-187" target="TjqWgJ0wDWPpkisWlTRm-191">
          <mxGeometry relative="1" as="geometry" />
        </mxCell>
        <mxCell id="TjqWgJ0wDWPpkisWlTRm-187" value="int i = 0" style="whiteSpace=wrap;html=1;strokeWidth=2;" vertex="1" parent="1">
          <mxGeometry x="200" y="540" width="120" height="60" as="geometry" />
        </mxCell>
        <mxCell id="TjqWgJ0wDWPpkisWlTRm-188" value="" style="edgeStyle=orthogonalEdgeStyle;rounded=0;orthogonalLoop=1;jettySize=auto;html=1;" edge="1" parent="1" source="TjqWgJ0wDWPpkisWlTRm-191" target="TjqWgJ0wDWPpkisWlTRm-193">
          <mxGeometry relative="1" as="geometry" />
        </mxCell>
        <mxCell id="TjqWgJ0wDWPpkisWlTRm-189" value="T" style="edgeLabel;html=1;align=center;verticalAlign=middle;resizable=0;points=[];" vertex="1" connectable="0" parent="TjqWgJ0wDWPpkisWlTRm-188">
          <mxGeometry x="-0.0667" y="-2" relative="1" as="geometry">
            <mxPoint as="offset" />
          </mxGeometry>
        </mxCell>
        <mxCell id="TjqWgJ0wDWPpkisWlTRm-190" style="edgeStyle=orthogonalEdgeStyle;rounded=0;orthogonalLoop=1;jettySize=auto;html=1;exitX=0.5;exitY=1;exitDx=0;exitDy=0;entryX=0.5;entryY=0;entryDx=0;entryDy=0;" edge="1" parent="1" source="TjqWgJ0wDWPpkisWlTRm-191" target="TjqWgJ0wDWPpkisWlTRm-14">
          <mxGeometry relative="1" as="geometry">
            <mxPoint x="260" y="870" as="targetPoint" />
          </mxGeometry>
        </mxCell>
        <mxCell id="TjqWgJ0wDWPpkisWlTRm-361" value="F" style="edgeLabel;html=1;align=center;verticalAlign=middle;resizable=0;points=[];" vertex="1" connectable="0" parent="TjqWgJ0wDWPpkisWlTRm-190">
          <mxGeometry x="-0.3009" y="1" relative="1" as="geometry">
            <mxPoint as="offset" />
          </mxGeometry>
        </mxCell>
        <mxCell id="TjqWgJ0wDWPpkisWlTRm-191" value="i &amp;lt; 10" style="rhombus;whiteSpace=wrap;html=1;strokeWidth=2;" vertex="1" parent="1">
          <mxGeometry x="220" y="670" width="80" height="80" as="geometry" />
        </mxCell>
        <mxCell id="TjqWgJ0wDWPpkisWlTRm-192" value="" style="edgeStyle=orthogonalEdgeStyle;rounded=0;orthogonalLoop=1;jettySize=auto;html=1;" edge="1" parent="1" source="TjqWgJ0wDWPpkisWlTRm-193" target="TjqWgJ0wDWPpkisWlTRm-195">
          <mxGeometry relative="1" as="geometry" />
        </mxCell>
        <mxCell id="TjqWgJ0wDWPpkisWlTRm-193" value="i++" style="whiteSpace=wrap;html=1;strokeWidth=2;" vertex="1" parent="1">
          <mxGeometry x="360" y="680" width="60" height="60" as="geometry" />
        </mxCell>
        <mxCell id="TjqWgJ0wDWPpkisWlTRm-194" style="edgeStyle=orthogonalEdgeStyle;rounded=0;orthogonalLoop=1;jettySize=auto;html=1;exitX=1;exitY=0.5;exitDx=0;exitDy=0;entryX=0.5;entryY=0;entryDx=0;entryDy=0;" edge="1" parent="1" source="TjqWgJ0wDWPpkisWlTRm-195" target="TjqWgJ0wDWPpkisWlTRm-191">
          <mxGeometry relative="1" as="geometry" />
        </mxCell>
        <mxCell id="TjqWgJ0wDWPpkisWlTRm-195" value="pinMode(LED{i}, OUTPUT);" style="whiteSpace=wrap;html=1;strokeWidth=2;" vertex="1" parent="1">
          <mxGeometry x="330" y="780" width="120" height="60" as="geometry" />
        </mxCell>
        <mxCell id="TjqWgJ0wDWPpkisWlTRm-227" style="edgeStyle=orthogonalEdgeStyle;rounded=0;orthogonalLoop=1;jettySize=auto;html=1;exitX=0;exitY=0.5;exitDx=0;exitDy=0;entryX=0.5;entryY=0;entryDx=0;entryDy=0;" edge="1" parent="1" source="TjqWgJ0wDWPpkisWlTRm-197" target="TjqWgJ0wDWPpkisWlTRm-35">
          <mxGeometry relative="1" as="geometry">
            <Array as="points">
              <mxPoint x="120" y="4050" />
              <mxPoint x="120" y="1310" />
              <mxPoint x="260" y="1310" />
            </Array>
          </mxGeometry>
        </mxCell>
        <mxCell id="TjqWgJ0wDWPpkisWlTRm-197" value="moved = false" style="whiteSpace=wrap;html=1;strokeWidth=2;" vertex="1" parent="1">
          <mxGeometry x="200" y="4020" width="120" height="60" as="geometry" />
        </mxCell>
        <mxCell id="TjqWgJ0wDWPpkisWlTRm-283" value="" style="edgeStyle=orthogonalEdgeStyle;rounded=0;orthogonalLoop=1;jettySize=auto;html=1;" edge="1" parent="1" source="TjqWgJ0wDWPpkisWlTRm-213" target="TjqWgJ0wDWPpkisWlTRm-282">
          <mxGeometry relative="1" as="geometry" />
        </mxCell>
        <mxCell id="TjqWgJ0wDWPpkisWlTRm-328" value="T" style="edgeLabel;html=1;align=center;verticalAlign=middle;resizable=0;points=[];" vertex="1" connectable="0" parent="TjqWgJ0wDWPpkisWlTRm-283">
          <mxGeometry x="-0.2051" y="3" relative="1" as="geometry">
            <mxPoint as="offset" />
          </mxGeometry>
        </mxCell>
        <mxCell id="TjqWgJ0wDWPpkisWlTRm-292" style="edgeStyle=orthogonalEdgeStyle;rounded=0;orthogonalLoop=1;jettySize=auto;html=1;exitX=0.5;exitY=1;exitDx=0;exitDy=0;" edge="1" parent="1" source="TjqWgJ0wDWPpkisWlTRm-213">
          <mxGeometry relative="1" as="geometry">
            <mxPoint x="510" y="3590" as="targetPoint" />
          </mxGeometry>
        </mxCell>
        <mxCell id="TjqWgJ0wDWPpkisWlTRm-329" value="F" style="edgeLabel;html=1;align=center;verticalAlign=middle;resizable=0;points=[];" vertex="1" connectable="0" parent="TjqWgJ0wDWPpkisWlTRm-292">
          <mxGeometry x="-0.4304" y="4" relative="1" as="geometry">
            <mxPoint as="offset" />
          </mxGeometry>
        </mxCell>
        <mxCell id="TjqWgJ0wDWPpkisWlTRm-213" value="first == false &amp;amp;&amp;amp; second == false &amp;amp;&amp;amp; third == false" style="rhombus;whiteSpace=wrap;html=1;strokeWidth=2;" vertex="1" parent="1">
          <mxGeometry x="340" y="2860" width="340" height="80" as="geometry" />
        </mxCell>
        <mxCell id="TjqWgJ0wDWPpkisWlTRm-339" style="edgeStyle=orthogonalEdgeStyle;rounded=0;orthogonalLoop=1;jettySize=auto;html=1;exitX=0.5;exitY=1;exitDx=0;exitDy=0;" edge="1" parent="1" source="TjqWgJ0wDWPpkisWlTRm-220" target="TjqWgJ0wDWPpkisWlTRm-303">
          <mxGeometry relative="1" as="geometry" />
        </mxCell>
        <mxCell id="TjqWgJ0wDWPpkisWlTRm-220" value="digitalWrite(LED[prev], LOW)&lt;div&gt;digitalWrite(LED[loc], HIGH)&lt;/div&gt;" style="whiteSpace=wrap;html=1;strokeWidth=2;" vertex="1" parent="1">
          <mxGeometry x="385" y="3591" width="250" height="120" as="geometry" />
        </mxCell>
        <mxCell id="TjqWgJ0wDWPpkisWlTRm-229" value="&lt;font style=&quot;font-size: 18px; color: light-dark(rgb(0, 0, 0), rgb(0, 0, 0));&quot;&gt;void btnPress(int i)&lt;/font&gt;" style="rounded=1;html=1;absoluteArcSize=1;arcSize=14;strokeWidth=2;labelBackgroundColor=light-dark(#000000,#FFFFFF);labelBorderColor=none;whiteSpace=wrap;" vertex="1" parent="1">
          <mxGeometry x="-700" y="1080" width="220" height="60" as="geometry" />
        </mxCell>
        <mxCell id="TjqWgJ0wDWPpkisWlTRm-310" value="" style="edgeStyle=orthogonalEdgeStyle;rounded=0;orthogonalLoop=1;jettySize=auto;html=1;" edge="1" parent="1" source="TjqWgJ0wDWPpkisWlTRm-232" target="TjqWgJ0wDWPpkisWlTRm-309">
          <mxGeometry relative="1" as="geometry" />
        </mxCell>
        <mxCell id="TjqWgJ0wDWPpkisWlTRm-340" value="T" style="edgeLabel;html=1;align=center;verticalAlign=middle;resizable=0;points=[];" vertex="1" connectable="0" parent="TjqWgJ0wDWPpkisWlTRm-310">
          <mxGeometry x="-0.15" y="6" relative="1" as="geometry">
            <mxPoint x="-1" as="offset" />
          </mxGeometry>
        </mxCell>
        <mxCell id="TjqWgJ0wDWPpkisWlTRm-232" value="third = true" style="rhombus;whiteSpace=wrap;html=1;strokeWidth=2;" vertex="1" parent="1">
          <mxGeometry x="-970" y="2098" width="110" height="80" as="geometry" />
        </mxCell>
        <mxCell id="TjqWgJ0wDWPpkisWlTRm-233" value="" style="edgeStyle=orthogonalEdgeStyle;rounded=0;orthogonalLoop=1;jettySize=auto;html=1;" edge="1" parent="1" source="TjqWgJ0wDWPpkisWlTRm-235" target="TjqWgJ0wDWPpkisWlTRm-236">
          <mxGeometry relative="1" as="geometry" />
        </mxCell>
        <mxCell id="TjqWgJ0wDWPpkisWlTRm-342" value="T" style="edgeLabel;html=1;align=center;verticalAlign=middle;resizable=0;points=[];" vertex="1" connectable="0" parent="TjqWgJ0wDWPpkisWlTRm-233">
          <mxGeometry x="0.0044" y="2" relative="1" as="geometry">
            <mxPoint as="offset" />
          </mxGeometry>
        </mxCell>
        <mxCell id="TjqWgJ0wDWPpkisWlTRm-234" value="" style="edgeStyle=orthogonalEdgeStyle;rounded=0;orthogonalLoop=1;jettySize=auto;html=1;" edge="1" parent="1" source="TjqWgJ0wDWPpkisWlTRm-235" target="TjqWgJ0wDWPpkisWlTRm-260">
          <mxGeometry relative="1" as="geometry" />
        </mxCell>
        <mxCell id="TjqWgJ0wDWPpkisWlTRm-343" value="F" style="edgeLabel;html=1;align=center;verticalAlign=middle;resizable=0;points=[];" vertex="1" connectable="0" parent="TjqWgJ0wDWPpkisWlTRm-234">
          <mxGeometry x="0.0583" y="-5" relative="1" as="geometry">
            <mxPoint as="offset" />
          </mxGeometry>
        </mxCell>
        <mxCell id="TjqWgJ0wDWPpkisWlTRm-235" value="loc == 6" style="rhombus;whiteSpace=wrap;html=1;strokeWidth=2;" vertex="1" parent="1">
          <mxGeometry x="-623" y="2098" width="110" height="80" as="geometry" />
        </mxCell>
        <mxCell id="TjqWgJ0wDWPpkisWlTRm-236" value="&lt;div&gt;third = false&lt;/div&gt;&lt;div&gt;digitalWrite(LED[9],LOW)&lt;/div&gt;&lt;div&gt;dir = false;&lt;/div&gt;" style="whiteSpace=wrap;html=1;strokeWidth=2;" vertex="1" parent="1">
          <mxGeometry x="-438" y="2108" width="180" height="60" as="geometry" />
        </mxCell>
        <mxCell id="TjqWgJ0wDWPpkisWlTRm-238" value="loc++&lt;div&gt;moved = true;&lt;/div&gt;" style="whiteSpace=wrap;html=1;strokeWidth=2;" vertex="1" parent="1">
          <mxGeometry x="-423" y="2268" width="120" height="60" as="geometry" />
        </mxCell>
        <mxCell id="TjqWgJ0wDWPpkisWlTRm-239" value="" style="edgeStyle=orthogonalEdgeStyle;rounded=0;orthogonalLoop=1;jettySize=auto;html=1;" edge="1" parent="1" source="TjqWgJ0wDWPpkisWlTRm-241" target="TjqWgJ0wDWPpkisWlTRm-244">
          <mxGeometry relative="1" as="geometry" />
        </mxCell>
        <mxCell id="TjqWgJ0wDWPpkisWlTRm-345" value="T" style="edgeLabel;html=1;align=center;verticalAlign=middle;resizable=0;points=[];" vertex="1" connectable="0" parent="TjqWgJ0wDWPpkisWlTRm-239">
          <mxGeometry x="-0.0958" relative="1" as="geometry">
            <mxPoint as="offset" />
          </mxGeometry>
        </mxCell>
        <mxCell id="TjqWgJ0wDWPpkisWlTRm-241" value="second = true" style="rhombus;whiteSpace=wrap;html=1;strokeWidth=2;" vertex="1" parent="1">
          <mxGeometry x="-970" y="2600" width="80" height="80" as="geometry" />
        </mxCell>
        <mxCell id="TjqWgJ0wDWPpkisWlTRm-242" value="" style="edgeStyle=orthogonalEdgeStyle;rounded=0;orthogonalLoop=1;jettySize=auto;html=1;" edge="1" parent="1" source="TjqWgJ0wDWPpkisWlTRm-244" target="TjqWgJ0wDWPpkisWlTRm-245">
          <mxGeometry relative="1" as="geometry" />
        </mxCell>
        <mxCell id="TjqWgJ0wDWPpkisWlTRm-346" value="T" style="edgeLabel;html=1;align=center;verticalAlign=middle;resizable=0;points=[];" vertex="1" connectable="0" parent="TjqWgJ0wDWPpkisWlTRm-242">
          <mxGeometry x="-0.15" y="-5" relative="1" as="geometry">
            <mxPoint as="offset" />
          </mxGeometry>
        </mxCell>
        <mxCell id="TjqWgJ0wDWPpkisWlTRm-243" value="" style="edgeStyle=orthogonalEdgeStyle;rounded=0;orthogonalLoop=1;jettySize=auto;html=1;" edge="1" parent="1" source="TjqWgJ0wDWPpkisWlTRm-244" target="TjqWgJ0wDWPpkisWlTRm-248">
          <mxGeometry relative="1" as="geometry" />
        </mxCell>
        <mxCell id="TjqWgJ0wDWPpkisWlTRm-350" value="F" style="edgeLabel;html=1;align=center;verticalAlign=middle;resizable=0;points=[];" vertex="1" connectable="0" parent="TjqWgJ0wDWPpkisWlTRm-243">
          <mxGeometry x="-0.1417" y="-4" relative="1" as="geometry">
            <mxPoint as="offset" />
          </mxGeometry>
        </mxCell>
        <mxCell id="TjqWgJ0wDWPpkisWlTRm-244" value="loc == 3" style="rhombus;whiteSpace=wrap;html=1;strokeWidth=2;" vertex="1" parent="1">
          <mxGeometry x="-810" y="2600" width="80" height="80" as="geometry" />
        </mxCell>
        <mxCell id="TjqWgJ0wDWPpkisWlTRm-245" value="&lt;div&gt;second = false&lt;/div&gt;&lt;div&gt;digitalWrite(LED[8].LOW)&lt;/div&gt;" style="whiteSpace=wrap;html=1;strokeWidth=2;" vertex="1" parent="1">
          <mxGeometry x="-670" y="2610" width="170" height="60" as="geometry" />
        </mxCell>
        <mxCell id="TjqWgJ0wDWPpkisWlTRm-246" value="" style="edgeStyle=orthogonalEdgeStyle;rounded=0;orthogonalLoop=1;jettySize=auto;html=1;" edge="1" parent="1" source="TjqWgJ0wDWPpkisWlTRm-248" target="TjqWgJ0wDWPpkisWlTRm-263">
          <mxGeometry relative="1" as="geometry" />
        </mxCell>
        <mxCell id="TjqWgJ0wDWPpkisWlTRm-347" value="T" style="edgeLabel;html=1;align=center;verticalAlign=middle;resizable=0;points=[];" vertex="1" connectable="0" parent="TjqWgJ0wDWPpkisWlTRm-246">
          <mxGeometry x="-0.1625" y="-5" relative="1" as="geometry">
            <mxPoint as="offset" />
          </mxGeometry>
        </mxCell>
        <mxCell id="TjqWgJ0wDWPpkisWlTRm-247" style="edgeStyle=orthogonalEdgeStyle;rounded=0;orthogonalLoop=1;jettySize=auto;html=1;exitX=0.5;exitY=1;exitDx=0;exitDy=0;" edge="1" parent="1" source="TjqWgJ0wDWPpkisWlTRm-248" target="TjqWgJ0wDWPpkisWlTRm-265">
          <mxGeometry relative="1" as="geometry" />
        </mxCell>
        <mxCell id="TjqWgJ0wDWPpkisWlTRm-351" value="F" style="edgeLabel;html=1;align=center;verticalAlign=middle;resizable=0;points=[];" vertex="1" connectable="0" parent="TjqWgJ0wDWPpkisWlTRm-247">
          <mxGeometry x="-0.3333" y="6" relative="1" as="geometry">
            <mxPoint as="offset" />
          </mxGeometry>
        </mxCell>
        <mxCell id="TjqWgJ0wDWPpkisWlTRm-248" value="loc &amp;gt; 3" style="rhombus;whiteSpace=wrap;html=1;strokeWidth=2;" vertex="1" parent="1">
          <mxGeometry x="-810" y="2760" width="80" height="80" as="geometry" />
        </mxCell>
        <mxCell id="TjqWgJ0wDWPpkisWlTRm-249" value="&lt;div&gt;prev = loc&lt;/div&gt;loc--&lt;div&gt;moved = true;&lt;/div&gt;" style="whiteSpace=wrap;html=1;strokeWidth=2;" vertex="1" parent="1">
          <mxGeometry x="-500" y="2770" width="120" height="60" as="geometry" />
        </mxCell>
        <mxCell id="TjqWgJ0wDWPpkisWlTRm-250" value="&lt;div&gt;prev = loc&lt;/div&gt;loc++&lt;div&gt;moved = true;&lt;/div&gt;" style="whiteSpace=wrap;html=1;strokeWidth=2;" vertex="1" parent="1">
          <mxGeometry x="-500" y="2921" width="120" height="60" as="geometry" />
        </mxCell>
        <mxCell id="TjqWgJ0wDWPpkisWlTRm-251" value="" style="edgeStyle=orthogonalEdgeStyle;rounded=0;orthogonalLoop=1;jettySize=auto;html=1;" edge="1" parent="1" source="TjqWgJ0wDWPpkisWlTRm-252" target="TjqWgJ0wDWPpkisWlTRm-255">
          <mxGeometry relative="1" as="geometry" />
        </mxCell>
        <mxCell id="TjqWgJ0wDWPpkisWlTRm-352" value="T" style="edgeLabel;html=1;align=center;verticalAlign=middle;resizable=0;points=[];" vertex="1" connectable="0" parent="TjqWgJ0wDWPpkisWlTRm-251">
          <mxGeometry x="0.1708" y="-4" relative="1" as="geometry">
            <mxPoint as="offset" />
          </mxGeometry>
        </mxCell>
        <mxCell id="TjqWgJ0wDWPpkisWlTRm-252" value="first = true" style="rhombus;whiteSpace=wrap;html=1;strokeWidth=2;" vertex="1" parent="1">
          <mxGeometry x="-970" y="3201" width="80" height="80" as="geometry" />
        </mxCell>
        <mxCell id="TjqWgJ0wDWPpkisWlTRm-253" value="" style="edgeStyle=orthogonalEdgeStyle;rounded=0;orthogonalLoop=1;jettySize=auto;html=1;" edge="1" parent="1" source="TjqWgJ0wDWPpkisWlTRm-255" target="TjqWgJ0wDWPpkisWlTRm-256">
          <mxGeometry relative="1" as="geometry" />
        </mxCell>
        <mxCell id="TjqWgJ0wDWPpkisWlTRm-353" value="T" style="edgeLabel;html=1;align=center;verticalAlign=middle;resizable=0;points=[];" vertex="1" connectable="0" parent="TjqWgJ0wDWPpkisWlTRm-253">
          <mxGeometry x="-0.15" y="-7" relative="1" as="geometry">
            <mxPoint as="offset" />
          </mxGeometry>
        </mxCell>
        <mxCell id="TjqWgJ0wDWPpkisWlTRm-254" value="" style="edgeStyle=orthogonalEdgeStyle;rounded=0;orthogonalLoop=1;jettySize=auto;html=1;" edge="1" parent="1" source="TjqWgJ0wDWPpkisWlTRm-255" target="TjqWgJ0wDWPpkisWlTRm-258">
          <mxGeometry relative="1" as="geometry" />
        </mxCell>
        <mxCell id="TjqWgJ0wDWPpkisWlTRm-356" value="F" style="edgeLabel;html=1;align=center;verticalAlign=middle;resizable=0;points=[];" vertex="1" connectable="0" parent="TjqWgJ0wDWPpkisWlTRm-254">
          <mxGeometry x="-0.1917" y="2" relative="1" as="geometry">
            <mxPoint as="offset" />
          </mxGeometry>
        </mxCell>
        <mxCell id="TjqWgJ0wDWPpkisWlTRm-255" value="loc ==0" style="rhombus;whiteSpace=wrap;html=1;strokeWidth=2;" vertex="1" parent="1">
          <mxGeometry x="-810" y="3201" width="80" height="80" as="geometry" />
        </mxCell>
        <mxCell id="TjqWgJ0wDWPpkisWlTRm-256" value="&lt;div&gt;first = false;&lt;br&gt;digitalWrite(LED[7].LOW)&lt;/div&gt;&lt;div&gt;dir = true;&lt;/div&gt;" style="whiteSpace=wrap;html=1;strokeWidth=2;" vertex="1" parent="1">
          <mxGeometry x="-670" y="3211" width="170" height="60" as="geometry" />
        </mxCell>
        <mxCell id="TjqWgJ0wDWPpkisWlTRm-257" style="edgeStyle=orthogonalEdgeStyle;rounded=0;orthogonalLoop=1;jettySize=auto;html=1;entryX=0;entryY=0.5;entryDx=0;entryDy=0;" edge="1" parent="1" source="TjqWgJ0wDWPpkisWlTRm-258" target="TjqWgJ0wDWPpkisWlTRm-267">
          <mxGeometry relative="1" as="geometry" />
        </mxCell>
        <mxCell id="TjqWgJ0wDWPpkisWlTRm-354" value="T" style="edgeLabel;html=1;align=center;verticalAlign=middle;resizable=0;points=[];" vertex="1" connectable="0" parent="TjqWgJ0wDWPpkisWlTRm-257">
          <mxGeometry x="0.2042" y="1" relative="1" as="geometry">
            <mxPoint as="offset" />
          </mxGeometry>
        </mxCell>
        <mxCell id="TjqWgJ0wDWPpkisWlTRm-258" value="loc &amp;gt; 0" style="rhombus;whiteSpace=wrap;html=1;strokeWidth=2;" vertex="1" parent="1">
          <mxGeometry x="-810" y="3361" width="80" height="80" as="geometry" />
        </mxCell>
        <mxCell id="TjqWgJ0wDWPpkisWlTRm-259" style="edgeStyle=orthogonalEdgeStyle;rounded=0;orthogonalLoop=1;jettySize=auto;html=1;exitX=1;exitY=0.5;exitDx=0;exitDy=0;entryX=0;entryY=0.5;entryDx=0;entryDy=0;" edge="1" parent="1" source="TjqWgJ0wDWPpkisWlTRm-260" target="TjqWgJ0wDWPpkisWlTRm-238">
          <mxGeometry relative="1" as="geometry" />
        </mxCell>
        <mxCell id="TjqWgJ0wDWPpkisWlTRm-344" value="T" style="edgeLabel;html=1;align=center;verticalAlign=middle;resizable=0;points=[];" vertex="1" connectable="0" parent="TjqWgJ0wDWPpkisWlTRm-259">
          <mxGeometry x="-0.1492" relative="1" as="geometry">
            <mxPoint x="-1" as="offset" />
          </mxGeometry>
        </mxCell>
        <mxCell id="TjqWgJ0wDWPpkisWlTRm-260" value="loc &amp;lt; 6" style="rhombus;whiteSpace=wrap;html=1;strokeWidth=2;" vertex="1" parent="1">
          <mxGeometry x="-608" y="2258" width="80" height="80" as="geometry" />
        </mxCell>
        <mxCell id="TjqWgJ0wDWPpkisWlTRm-261" value="&lt;div&gt;prev = loc&lt;/div&gt;loc--&lt;div&gt;moved = true&lt;/div&gt;" style="whiteSpace=wrap;html=1;strokeWidth=2;" vertex="1" parent="1">
          <mxGeometry x="-483" y="3371" width="120" height="60" as="geometry" />
        </mxCell>
        <mxCell id="TjqWgJ0wDWPpkisWlTRm-262" style="edgeStyle=orthogonalEdgeStyle;rounded=0;orthogonalLoop=1;jettySize=auto;html=1;exitX=1;exitY=0.5;exitDx=0;exitDy=0;entryX=0;entryY=0.5;entryDx=0;entryDy=0;" edge="1" parent="1" source="TjqWgJ0wDWPpkisWlTRm-263" target="TjqWgJ0wDWPpkisWlTRm-249">
          <mxGeometry relative="1" as="geometry" />
        </mxCell>
        <mxCell id="TjqWgJ0wDWPpkisWlTRm-348" value="T" style="edgeLabel;html=1;align=center;verticalAlign=middle;resizable=0;points=[];" vertex="1" connectable="0" parent="TjqWgJ0wDWPpkisWlTRm-262">
          <mxGeometry x="-0.0979" y="-4" relative="1" as="geometry">
            <mxPoint as="offset" />
          </mxGeometry>
        </mxCell>
        <mxCell id="TjqWgJ0wDWPpkisWlTRm-263" value="moved == false" style="rhombus;whiteSpace=wrap;html=1;strokeWidth=2;" vertex="1" parent="1">
          <mxGeometry x="-650" y="2760" width="80" height="80" as="geometry" />
        </mxCell>
        <mxCell id="TjqWgJ0wDWPpkisWlTRm-264" style="edgeStyle=orthogonalEdgeStyle;rounded=0;orthogonalLoop=1;jettySize=auto;html=1;exitX=1;exitY=0.5;exitDx=0;exitDy=0;entryX=0;entryY=0.5;entryDx=0;entryDy=0;" edge="1" parent="1" source="TjqWgJ0wDWPpkisWlTRm-265" target="TjqWgJ0wDWPpkisWlTRm-250">
          <mxGeometry relative="1" as="geometry" />
        </mxCell>
        <mxCell id="TjqWgJ0wDWPpkisWlTRm-349" value="T" style="edgeLabel;html=1;align=center;verticalAlign=middle;resizable=0;points=[];" vertex="1" connectable="0" parent="TjqWgJ0wDWPpkisWlTRm-264">
          <mxGeometry x="-0.0406" y="-5" relative="1" as="geometry">
            <mxPoint as="offset" />
          </mxGeometry>
        </mxCell>
        <mxCell id="TjqWgJ0wDWPpkisWlTRm-265" value="moved == false" style="rhombus;whiteSpace=wrap;html=1;strokeWidth=2;" vertex="1" parent="1">
          <mxGeometry x="-810" y="2911" width="80" height="80" as="geometry" />
        </mxCell>
        <mxCell id="TjqWgJ0wDWPpkisWlTRm-266" style="edgeStyle=orthogonalEdgeStyle;rounded=0;orthogonalLoop=1;jettySize=auto;html=1;exitX=1;exitY=0.5;exitDx=0;exitDy=0;entryX=0;entryY=0.5;entryDx=0;entryDy=0;" edge="1" parent="1" source="TjqWgJ0wDWPpkisWlTRm-267" target="TjqWgJ0wDWPpkisWlTRm-261">
          <mxGeometry relative="1" as="geometry">
            <mxPoint x="-490" y="3400.823529411765" as="targetPoint" />
          </mxGeometry>
        </mxCell>
        <mxCell id="TjqWgJ0wDWPpkisWlTRm-355" value="T" style="edgeLabel;html=1;align=center;verticalAlign=middle;resizable=0;points=[];" vertex="1" connectable="0" parent="TjqWgJ0wDWPpkisWlTRm-266">
          <mxGeometry x="-0.3525" y="-4" relative="1" as="geometry">
            <mxPoint as="offset" />
          </mxGeometry>
        </mxCell>
        <mxCell id="TjqWgJ0wDWPpkisWlTRm-267" value="moved == false" style="rhombus;whiteSpace=wrap;html=1;strokeWidth=2;" vertex="1" parent="1">
          <mxGeometry x="-650" y="3361" width="80" height="80" as="geometry" />
        </mxCell>
        <mxCell id="TjqWgJ0wDWPpkisWlTRm-296" value="" style="edgeStyle=orthogonalEdgeStyle;rounded=0;orthogonalLoop=1;jettySize=auto;html=1;" edge="1" parent="1" source="TjqWgJ0wDWPpkisWlTRm-270" target="TjqWgJ0wDWPpkisWlTRm-295">
          <mxGeometry relative="1" as="geometry" />
        </mxCell>
        <mxCell id="TjqWgJ0wDWPpkisWlTRm-325" value="T" style="edgeLabel;html=1;align=center;verticalAlign=middle;resizable=0;points=[];" vertex="1" connectable="0" parent="TjqWgJ0wDWPpkisWlTRm-296">
          <mxGeometry x="-0.0805" y="3" relative="1" as="geometry">
            <mxPoint as="offset" />
          </mxGeometry>
        </mxCell>
        <mxCell id="TjqWgJ0wDWPpkisWlTRm-337" style="edgeStyle=orthogonalEdgeStyle;rounded=0;orthogonalLoop=1;jettySize=auto;html=1;exitX=0.5;exitY=1;exitDx=0;exitDy=0;entryX=0.5;entryY=0;entryDx=0;entryDy=0;" edge="1" parent="1" source="TjqWgJ0wDWPpkisWlTRm-270" target="TjqWgJ0wDWPpkisWlTRm-197">
          <mxGeometry relative="1" as="geometry" />
        </mxCell>
        <mxCell id="TjqWgJ0wDWPpkisWlTRm-338" value="F" style="edgeLabel;html=1;align=center;verticalAlign=middle;resizable=0;points=[];" vertex="1" connectable="0" parent="TjqWgJ0wDWPpkisWlTRm-337">
          <mxGeometry x="-0.0249" y="4" relative="1" as="geometry">
            <mxPoint as="offset" />
          </mxGeometry>
        </mxCell>
        <mxCell id="TjqWgJ0wDWPpkisWlTRm-270" value="curMillis - prevMillis &amp;gt;= delayTime" style="rhombus;whiteSpace=wrap;html=1;strokeWidth=2;" vertex="1" parent="1">
          <mxGeometry x="145" y="2270" width="230" height="80" as="geometry" />
        </mxCell>
        <mxCell id="TjqWgJ0wDWPpkisWlTRm-278" value="floor_3();&lt;div&gt;floor_2();&lt;/div&gt;&lt;div&gt;floor_1();&lt;/div&gt;" style="whiteSpace=wrap;html=1;strokeWidth=2;" vertex="1" parent="1">
          <mxGeometry x="670" y="2280" width="120" height="60" as="geometry" />
        </mxCell>
        <mxCell id="TjqWgJ0wDWPpkisWlTRm-284" style="edgeStyle=orthogonalEdgeStyle;rounded=0;orthogonalLoop=1;jettySize=auto;html=1;exitX=0.5;exitY=1;exitDx=0;exitDy=0;entryX=0.5;entryY=0;entryDx=0;entryDy=0;" edge="1" parent="1" source="TjqWgJ0wDWPpkisWlTRm-282" target="TjqWgJ0wDWPpkisWlTRm-169">
          <mxGeometry relative="1" as="geometry" />
        </mxCell>
        <mxCell id="TjqWgJ0wDWPpkisWlTRm-282" value="prev = loc" style="whiteSpace=wrap;html=1;strokeWidth=2;" vertex="1" parent="1">
          <mxGeometry x="745" y="2871" width="120" height="60" as="geometry" />
        </mxCell>
        <mxCell id="TjqWgJ0wDWPpkisWlTRm-291" style="edgeStyle=orthogonalEdgeStyle;rounded=0;orthogonalLoop=1;jettySize=auto;html=1;exitX=0.5;exitY=1;exitDx=0;exitDy=0;" edge="1" parent="1" source="TjqWgJ0wDWPpkisWlTRm-286">
          <mxGeometry relative="1" as="geometry">
            <mxPoint x="510" y="3590" as="targetPoint" />
            <Array as="points">
              <mxPoint x="805" y="3520" />
              <mxPoint x="510" y="3520" />
            </Array>
          </mxGeometry>
        </mxCell>
        <mxCell id="TjqWgJ0wDWPpkisWlTRm-286" value="&lt;div&gt;&lt;span style=&quot;background-color: transparent; color: light-dark(rgb(0, 0, 0), rgb(255, 255, 255));&quot;&gt;digitalWrite(LED[prev], LOW)&lt;/span&gt;&lt;/div&gt;&lt;div&gt;digitalWrite(LED[loc],HIGH)&lt;br&gt;&lt;div&gt;&lt;br&gt;&lt;/div&gt;&lt;/div&gt;" style="whiteSpace=wrap;html=1;strokeWidth=2;" vertex="1" parent="1">
          <mxGeometry x="700" y="3401" width="210" height="80" as="geometry" />
        </mxCell>
        <mxCell id="TjqWgJ0wDWPpkisWlTRm-297" style="edgeStyle=orthogonalEdgeStyle;rounded=0;orthogonalLoop=1;jettySize=auto;html=1;exitX=1;exitY=0.5;exitDx=0;exitDy=0;entryX=0;entryY=0.5;entryDx=0;entryDy=0;" edge="1" parent="1" source="TjqWgJ0wDWPpkisWlTRm-295" target="TjqWgJ0wDWPpkisWlTRm-278">
          <mxGeometry relative="1" as="geometry" />
        </mxCell>
        <mxCell id="TjqWgJ0wDWPpkisWlTRm-326" value="T" style="edgeLabel;html=1;align=center;verticalAlign=middle;resizable=0;points=[];" vertex="1" connectable="0" parent="TjqWgJ0wDWPpkisWlTRm-297">
          <mxGeometry x="-0.081" relative="1" as="geometry">
            <mxPoint as="offset" />
          </mxGeometry>
        </mxCell>
        <mxCell id="TjqWgJ0wDWPpkisWlTRm-300" value="" style="edgeStyle=orthogonalEdgeStyle;rounded=0;orthogonalLoop=1;jettySize=auto;html=1;" edge="1" parent="1" source="TjqWgJ0wDWPpkisWlTRm-295" target="TjqWgJ0wDWPpkisWlTRm-299">
          <mxGeometry relative="1" as="geometry" />
        </mxCell>
        <mxCell id="TjqWgJ0wDWPpkisWlTRm-327" value="F" style="edgeLabel;html=1;align=center;verticalAlign=middle;resizable=0;points=[];" vertex="1" connectable="0" parent="TjqWgJ0wDWPpkisWlTRm-300">
          <mxGeometry x="-0.1281" y="3" relative="1" as="geometry">
            <mxPoint as="offset" />
          </mxGeometry>
        </mxCell>
        <mxCell id="TjqWgJ0wDWPpkisWlTRm-295" value="dir == true" style="rhombus;whiteSpace=wrap;html=1;strokeWidth=2;" vertex="1" parent="1">
          <mxGeometry x="440" y="2270" width="140" height="80" as="geometry" />
        </mxCell>
        <mxCell id="TjqWgJ0wDWPpkisWlTRm-363" value="" style="edgeStyle=orthogonalEdgeStyle;rounded=0;orthogonalLoop=1;jettySize=auto;html=1;" edge="1" parent="1" source="TjqWgJ0wDWPpkisWlTRm-299" target="TjqWgJ0wDWPpkisWlTRm-362">
          <mxGeometry relative="1" as="geometry" />
        </mxCell>
        <mxCell id="TjqWgJ0wDWPpkisWlTRm-299" value="floor_1();&lt;div&gt;floor_2();&lt;/div&gt;&lt;div&gt;floor_3();&lt;/div&gt;" style="whiteSpace=wrap;html=1;strokeWidth=2;" vertex="1" parent="1">
          <mxGeometry x="450" y="2440" width="120" height="60" as="geometry" />
        </mxCell>
        <mxCell id="TjqWgJ0wDWPpkisWlTRm-306" style="edgeStyle=orthogonalEdgeStyle;rounded=0;orthogonalLoop=1;jettySize=auto;html=1;exitX=0.5;exitY=1;exitDx=0;exitDy=0;entryX=0.5;entryY=0;entryDx=0;entryDy=0;" edge="1" parent="1" source="TjqWgJ0wDWPpkisWlTRm-303" target="TjqWgJ0wDWPpkisWlTRm-197">
          <mxGeometry relative="1" as="geometry" />
        </mxCell>
        <mxCell id="TjqWgJ0wDWPpkisWlTRm-303" value="prevMillis = curMillis" style="whiteSpace=wrap;html=1;strokeWidth=2;" vertex="1" parent="1">
          <mxGeometry x="450" y="3850" width="120" height="60" as="geometry" />
        </mxCell>
        <mxCell id="TjqWgJ0wDWPpkisWlTRm-312" style="edgeStyle=orthogonalEdgeStyle;rounded=0;orthogonalLoop=1;jettySize=auto;html=1;exitX=1;exitY=0.5;exitDx=0;exitDy=0;entryX=0;entryY=0.5;entryDx=0;entryDy=0;" edge="1" parent="1" source="TjqWgJ0wDWPpkisWlTRm-309" target="TjqWgJ0wDWPpkisWlTRm-235">
          <mxGeometry relative="1" as="geometry" />
        </mxCell>
        <mxCell id="TjqWgJ0wDWPpkisWlTRm-341" value="T" style="edgeLabel;html=1;align=center;verticalAlign=middle;resizable=0;points=[];" vertex="1" connectable="0" parent="TjqWgJ0wDWPpkisWlTRm-312">
          <mxGeometry x="-0.3759" y="3" relative="1" as="geometry">
            <mxPoint as="offset" />
          </mxGeometry>
        </mxCell>
        <mxCell id="TjqWgJ0wDWPpkisWlTRm-309" value="moved == false" style="rhombus;whiteSpace=wrap;html=1;strokeWidth=2;" vertex="1" parent="1">
          <mxGeometry x="-780" y="2098" width="110" height="80" as="geometry" />
        </mxCell>
        <mxCell id="TjqWgJ0wDWPpkisWlTRm-357" value="&lt;font style=&quot;font-size: 20px; background-color: light-dark(rgb(255, 255, 255), rgb(255, 243, 243)); color: light-dark(rgb(0, 0, 0), rgb(0, 0, 0));&quot;&gt;void floor_3()&lt;/font&gt;" style="rounded=1;whiteSpace=wrap;html=1;absoluteArcSize=1;arcSize=14;strokeWidth=2;" vertex="1" parent="1">
          <mxGeometry x="-730" y="1960" width="180" height="70" as="geometry" />
        </mxCell>
        <mxCell id="TjqWgJ0wDWPpkisWlTRm-359" value="&lt;font style=&quot;font-size: 20px; background-color: light-dark(rgb(0, 0, 0), rgb(255, 255, 255)); color: light-dark(rgb(0, 0, 0), rgb(0, 0, 0));&quot;&gt;void &lt;font style=&quot;&quot;&gt;floor_1&lt;/font&gt;()&lt;/font&gt;" style="rounded=1;whiteSpace=wrap;html=1;absoluteArcSize=1;arcSize=14;strokeWidth=2;" vertex="1" parent="1">
          <mxGeometry x="-730" y="3071" width="180" height="70" as="geometry" />
        </mxCell>
        <mxCell id="TjqWgJ0wDWPpkisWlTRm-360" value="&lt;font style=&quot;font-size: 20px; background-color: light-dark(rgb(0, 0, 0), rgb(255, 255, 255)); color: light-dark(rgb(0, 0, 0), rgb(0, 0, 0));&quot;&gt;void floor_2()&lt;/font&gt;" style="rounded=1;whiteSpace=wrap;html=1;absoluteArcSize=1;arcSize=14;strokeWidth=2;" vertex="1" parent="1">
          <mxGeometry x="-730" y="2475" width="180" height="70" as="geometry" />
        </mxCell>
        <mxCell id="TjqWgJ0wDWPpkisWlTRm-367" value="" style="edgeStyle=orthogonalEdgeStyle;rounded=0;orthogonalLoop=1;jettySize=auto;html=1;" edge="1" parent="1" source="TjqWgJ0wDWPpkisWlTRm-362" target="TjqWgJ0wDWPpkisWlTRm-366">
          <mxGeometry relative="1" as="geometry" />
        </mxCell>
        <mxCell id="TjqWgJ0wDWPpkisWlTRm-370" value="T" style="edgeLabel;html=1;align=center;verticalAlign=middle;resizable=0;points=[];" vertex="1" connectable="0" parent="TjqWgJ0wDWPpkisWlTRm-367">
          <mxGeometry x="0.04" y="1" relative="1" as="geometry">
            <mxPoint x="-1" as="offset" />
          </mxGeometry>
        </mxCell>
        <mxCell id="TjqWgJ0wDWPpkisWlTRm-369" value="" style="edgeStyle=orthogonalEdgeStyle;rounded=0;orthogonalLoop=1;jettySize=auto;html=1;" edge="1" parent="1" source="TjqWgJ0wDWPpkisWlTRm-362" target="TjqWgJ0wDWPpkisWlTRm-368">
          <mxGeometry relative="1" as="geometry" />
        </mxCell>
        <mxCell id="TjqWgJ0wDWPpkisWlTRm-371" value="F" style="edgeLabel;html=1;align=center;verticalAlign=middle;resizable=0;points=[];" vertex="1" connectable="0" parent="TjqWgJ0wDWPpkisWlTRm-369">
          <mxGeometry x="-0.2667" relative="1" as="geometry">
            <mxPoint y="1" as="offset" />
          </mxGeometry>
        </mxCell>
        <mxCell id="TjqWgJ0wDWPpkisWlTRm-362" value="pㄱㄷㅍ &amp;lt;= loc" style="rhombus;whiteSpace=wrap;html=1;strokeWidth=2;" vertex="1" parent="1">
          <mxGeometry x="405" y="2545" width="210" height="80" as="geometry" />
        </mxCell>
        <mxCell id="TjqWgJ0wDWPpkisWlTRm-374" style="edgeStyle=orthogonalEdgeStyle;rounded=0;orthogonalLoop=1;jettySize=auto;html=1;exitX=0.5;exitY=1;exitDx=0;exitDy=0;entryX=0.5;entryY=0;entryDx=0;entryDy=0;" edge="1" parent="1" source="TjqWgJ0wDWPpkisWlTRm-366" target="TjqWgJ0wDWPpkisWlTRm-213">
          <mxGeometry relative="1" as="geometry">
            <Array as="points">
              <mxPoint x="730" y="2820" />
              <mxPoint x="510" y="2820" />
            </Array>
          </mxGeometry>
        </mxCell>
        <mxCell id="TjqWgJ0wDWPpkisWlTRm-366" value="dir = true" style="whiteSpace=wrap;html=1;strokeWidth=2;" vertex="1" parent="1">
          <mxGeometry x="670" y="2555" width="120" height="60" as="geometry" />
        </mxCell>
        <mxCell id="TjqWgJ0wDWPpkisWlTRm-372" style="edgeStyle=orthogonalEdgeStyle;rounded=0;orthogonalLoop=1;jettySize=auto;html=1;exitX=0.5;exitY=1;exitDx=0;exitDy=0;entryX=0.5;entryY=0;entryDx=0;entryDy=0;" edge="1" parent="1" source="TjqWgJ0wDWPpkisWlTRm-368" target="TjqWgJ0wDWPpkisWlTRm-213">
          <mxGeometry relative="1" as="geometry" />
        </mxCell>
        <mxCell id="TjqWgJ0wDWPpkisWlTRm-368" value="dir = false" style="whiteSpace=wrap;html=1;strokeWidth=2;" vertex="1" parent="1">
          <mxGeometry x="450" y="2715" width="120" height="60" as="geometry" />
        </mxCell>
      </root>
    </mxGraphModel>
  </diagram>
</mxfile>
